<svg width="573" height="442" viewBox="0 0 573 442" fill="none" xmlns="http://www.w3.org/2000/svg">
<g clip-path="url(#clip0_9_173)">
<path d="M436.186 61.5278C431.047 42.5443 472.496 26.2656 483.381 41.553C484.894 39.3796 490.488 38.0594 493.054 38.7262C495.62 39.3929 497.779 41.0597 499.884 42.6731C502.78 44.9266 505.78 47.2601 507.557 50.5003C509.347 53.7272 509.623 58.1275 507.215 60.9277C505.306 63.1545 499.674 64.5946 496.805 65.1813C494.804 65.5947 493.12 65.928 491.672 66.168C490.357 64.2485 489.751 61.9211 489.961 59.5943C488.987 60.2602 488.17 61.1364 487.569 62.16C486.968 63.1836 486.599 64.3292 486.487 65.5147C486.447 66.008 502.661 126.452 502.661 126.452C500.713 127.576 498.664 128.509 496.541 129.239C492.343 122.737 489.127 115.636 487 108.171C486.511 113.163 486.573 118.194 487.184 123.172C487.509 125.963 487.975 128.736 488.579 131.479C469.312 135.693 440.332 134.306 427.724 116.385C427.722 116.311 427.72 116.236 427.718 116.162C427.708 115.455 427.456 114.773 427.004 114.233C426.553 113.694 425.93 113.33 425.243 113.204C424.556 113.078 423.847 113.199 423.238 113.544C422.628 113.89 422.157 114.44 421.903 115.099C421.597 115.889 421.316 116.574 421.065 117.118C417.393 103.811 422.144 88.4095 436.186 61.5278Z" fill="#2F2E41"/>
<path d="M403.399 379.792V380.413C403.375 380.207 403.375 379.998 403.399 379.792Z" fill="#2F2E41"/>
<path d="M422.268 272.358C422.758 272.224 423.257 272.125 423.761 272.064C423.182 272.16 422.685 272.258 422.268 272.358Z" fill="#2F2E41"/>
<path d="M421.831 272.471C421.964 272.433 422.111 272.396 422.268 272.358C422.122 272.397 421.981 272.425 421.831 272.471Z" fill="#2F2E41"/>
<path d="M561.233 441.997H490.609C489.601 441.183 488.901 440.041 488.626 438.765C488.35 437.489 488.516 436.156 489.097 434.99C491.026 430.507 487.245 426.41 487.245 426.41C485.962 424.887 485.069 423.066 484.647 421.109C484.225 419.152 484.286 417.12 484.825 415.193C486.696 408.572 479.363 389.882 479.363 389.882C479.363 389.882 475.41 414.015 470.566 441.997H403.399C402.274 440.056 401.681 437.845 401.681 435.593C401.681 433.341 402.274 431.13 403.399 429.188C407.314 422.464 403.399 421.174 403.399 421.174C403.399 421.174 399.485 413.65 403.399 408.186C407.314 402.722 403.399 380.413 403.399 380.413C403.547 381.4 404.662 379.606 406.379 375.846C408.993 370.125 412.987 359.837 417.023 347.894C419.908 339.369 422.817 329.99 425.247 320.82H425.253C425.891 318.411 426.494 316.024 427.065 313.658C428.18 309.02 429.136 304.512 429.861 300.28C431.437 291.164 431.956 283.333 430.746 278.24C429.743 274.001 427.548 271.664 423.761 272.064C425.79 271.724 428.764 271.401 432.428 271.096C433.089 271.042 433.773 270.988 434.481 270.929C461.81 268.836 520.445 267.635 520.445 267.635L538.405 300.22L561.15 341.497C561.15 341.497 560.531 396.87 561.233 441.997Z" fill="#2F2E41"/>
<path d="M485.851 126.795L444.474 117.902L436.258 134.657L408.591 150.886C408.591 150.886 426.425 224.765 426.323 235.156C426.065 261.537 384.404 320.674 415.872 316.125C447.34 311.575 453.732 292.519 463.834 295.532C472.944 298.25 484.069 310.338 491.517 301.693C498.964 293.047 501.587 303.031 506.297 303.376C508.535 303.54 507.187 292.458 512.818 303.72C518.449 314.982 548.309 299.822 538.188 289.568C521.333 272.491 517.908 146.604 517.908 146.604L499.145 140.755L485.851 126.795Z" fill="#E6E6E6"/>
<path d="M407.809 395.094C409.471 393.085 410.295 390.499 410.103 387.885C409.912 385.27 408.722 382.835 406.786 381.096C406.387 380.749 405.96 380.436 405.51 380.16L412.428 345.759L396.435 336.06L391.986 384.224C391.002 386.203 390.692 388.457 391.105 390.634C391.518 392.81 392.63 394.787 394.269 396.256C395.209 397.082 396.301 397.713 397.482 398.112C398.663 398.511 399.909 398.671 401.151 398.581C402.393 398.492 403.605 398.156 404.718 397.592C405.832 397.029 406.825 396.248 407.641 395.296C407.698 395.229 407.754 395.162 407.809 395.094Z" fill="#A0616A"/>
<path d="M457.468 213.762C457.367 212.656 455.975 212.154 454.046 211.461C452.108 210.856 450.266 209.972 448.576 208.836C444.305 205.71 445.986 202.44 448.311 197.921C448.765 197.042 449.237 196.127 449.68 195.177C450.995 192.361 448.901 180.746 443.443 160.649C441.762 154.462 441.768 150.092 440.605 147.192C439.449 144.293 437.13 142.864 430.811 142.566C423.173 142.175 415.694 144.869 410.013 150.056C409.86 150.193 409.701 150.343 409.547 150.486C409.258 150.761 408.975 151.042 408.698 151.329C403.444 156.684 400.438 163.89 400.308 171.439L400.278 172.724L398.974 234.129L395.31 288.013L390.26 362.241L394.001 362.426L408.928 363.179L410.739 363.269L415.034 345.012L420.203 323.044L422.103 314.973L427.997 289.938L430.746 278.239L432.428 271.096L433.112 268.179L436.452 253.999C436.528 253.7 444.21 222.992 453.066 217.857C456.37 215.944 457.562 214.832 457.468 213.762Z" fill="#E6E6E6"/>
<path d="M556.832 394.728C554.966 392.912 553.874 390.43 553.786 387.81C553.699 385.19 554.624 382.639 556.365 380.7C556.725 380.311 557.116 379.954 557.535 379.631L547.01 346.181L561.883 334.798L571.411 382.199C572.599 384.06 573.146 386.267 572.966 388.476C572.787 390.685 571.89 392.771 570.417 394.41C569.57 395.334 568.551 396.08 567.419 396.605C566.288 397.13 565.065 397.425 563.821 397.471C562.577 397.518 561.336 397.315 560.169 396.876C559.003 396.437 557.933 395.769 557.02 394.91C556.957 394.851 556.894 394.79 556.832 394.728Z" fill="#A0616A"/>
<path d="M564.108 322.146C564.108 322.146 552.508 280.796 556.046 276.319C559.583 271.843 549.135 270.968 553.638 262.631C558.14 254.295 551.926 252.9 551.926 252.9L548.553 233.732L542.525 186.649L542.342 185.249L540.588 171.551C540.099 167.638 538.835 163.866 536.874 160.46C534.912 157.054 532.293 154.083 529.172 151.726C529.013 151.602 528.85 151.483 528.687 151.364C527.945 150.823 527.187 150.322 526.412 149.86C520.625 146.401 513.83 145.093 507.194 146.161C494.691 148.134 498.582 152.858 496.554 165.514C493.259 186.092 492.404 197.865 494.01 200.525C494.552 201.421 495.121 202.278 495.663 203.1C498.455 207.346 500.473 210.41 496.555 213.99C494.994 215.298 493.257 216.375 491.396 217.188C489.555 218.091 488.222 218.739 488.24 219.85C488.261 220.926 489.562 221.897 493.048 223.438C497.271 225.31 501.808 232.391 505.523 239.623C508.471 245.454 511.1 251.443 513.399 257.566L545.334 348.567L550.543 363.408L552.34 363.12L567.096 360.75L570.796 360.157L564.108 322.146Z" fill="#E6E6E6"/>
<path d="M468.394 117.273C487.038 117.273 502.152 101.96 502.152 83.0705C502.152 64.1807 487.038 48.8675 468.394 48.8675C449.75 48.8675 434.636 64.1807 434.636 83.0705C434.636 101.96 449.75 117.273 468.394 117.273Z" fill="#A0616A"/>
<path d="M417.761 64.1946C412.622 45.2111 454.071 28.9324 464.956 44.2199C466.469 42.0465 472.062 40.7263 474.629 41.393C477.195 42.0597 479.353 43.7265 481.459 45.34C484.355 47.5935 487.355 49.927 489.132 53.1672C490.922 56.394 491.198 60.7944 488.79 63.5945C486.881 65.8213 481.249 67.2615 478.38 67.8482C476.379 68.2615 474.695 68.5949 473.247 68.8349C471.932 66.9154 471.326 64.588 471.536 62.2611C470.562 62.9271 469.745 63.8033 469.144 64.8269C468.543 65.8505 468.174 66.9961 468.062 68.1815C468.022 68.6749 484.236 129.119 484.236 129.119C482.288 130.242 480.239 131.175 478.116 131.906C473.918 125.404 470.702 118.303 468.575 110.838C468.086 115.829 468.148 120.861 468.759 125.839C469.084 128.63 469.55 131.403 470.154 134.146C450.887 138.36 421.907 136.973 409.299 119.052C409.297 118.978 409.295 118.903 409.293 118.829C409.283 118.122 409.031 117.44 408.579 116.9C408.128 116.36 407.505 115.997 406.818 115.871C406.131 115.745 405.422 115.866 404.813 116.211C404.203 116.557 403.732 117.106 403.478 117.766C403.172 118.556 402.891 119.241 402.64 119.785C398.968 106.477 403.719 91.0764 417.761 64.1946Z" fill="#2F2E41"/>
<path d="M121.38 41.5537C120.753 43.0348 101.411 42.8761 100.526 44.1949C93.6956 54.3769 118.316 97.6985 111.486 107.894L110.535 109.043C112.763 108.002 114.903 106.779 116.935 105.384C117.117 101.211 117.3 97.025 117.495 92.8519C119.541 95.5034 121.192 98.4444 122.396 101.581C123.986 100.445 125.291 98.34 132.106 94.1989C134.866 91.1277 138.047 88.4747 141.552 86.3212L121.38 41.5537Z" fill="#2F2E41"/>
<path d="M135.426 125C133.291 123.592 130.856 122.719 128.322 122.455C125.788 122.19 123.228 122.542 120.856 123.481C118.483 124.42 116.365 125.918 114.678 127.852C112.991 129.786 111.784 132.1 111.156 134.601L81.7639 212.195L31.2417 183.134C31.0198 179.794 29.7596 176.611 27.6417 174.041C25.5238 171.471 22.657 169.647 19.4526 168.83C16.2481 168.013 12.8706 168.245 9.80444 169.493C6.73829 170.741 4.14103 172.941 2.38516 175.777C0.629285 178.613 -0.194983 181.94 0.0305733 185.28C0.25613 188.62 1.51993 191.802 3.6407 194.37C5.76146 196.937 8.63025 198.758 11.8356 199.571C15.041 200.385 18.4182 200.149 21.483 198.897C32.1225 210.402 78.2489 257.573 97.3449 239.142C113.396 223.65 136.56 163.609 142.136 142.875C143.029 139.56 142.86 136.042 141.655 132.83C140.449 129.618 138.268 126.876 135.426 125Z" fill="#FFB6B6"/>
<path d="M80.2344 242.394L89.5097 284.87L157.334 291.086L163.568 254.101L80.2344 242.394Z" fill="#FFB6B6"/>
<path d="M183.838 351.319C183.807 351.927 183.769 352.53 183.726 353.139C183.076 361.94 182.332 372.091 181.527 383.215C180.256 400.867 178.838 420.968 177.406 441.997H35.1438L62.7341 357.975C62.7341 357.975 73.8745 351.761 68.2028 341.321C62.5311 330.882 73.6909 339.201 73.7947 324.292C73.8986 309.383 83.8988 293.521 83.8988 293.521L85.5407 270.947L86.4763 270.966L160.51 272.215L161.861 272.241L164.135 291.619C177.941 308.265 184.985 329.607 183.838 351.319Z" fill="#2F2E41"/>
<path d="M122.566 104.415L156.326 102.653L172.006 127.757C172.006 127.757 201.509 132.754 199.464 167.978C197.419 203.202 163.568 234.112 163.568 234.112L165.015 229.085L162.501 236.361L162.824 240.446L166.252 244.773L166.605 249.247L163.568 256.326C163.963 256.968 164.172 257.709 164.173 258.465C164.173 259.221 163.964 259.962 163.57 260.604C163.176 261.246 162.612 261.763 161.943 262.097C161.273 262.431 160.525 262.568 159.782 262.492L111.002 257.539C109.891 254.444 109 250.74 104.549 256.906L99.9536 256.455L80.8515 254.58L79.7272 250.43C79.0883 248.072 78.9888 245.597 79.4361 243.195C79.8834 240.792 80.8658 238.524 82.3085 236.564C80.6492 231.3 81.0838 225.587 83.5197 220.643L83.611 220.458L85.6396 218.745C85.6396 218.745 63.4466 184.963 88.9235 159.52L99.1487 141.908L110.59 127.765L122.566 104.415Z" fill="black"/>
<path d="M130.968 89.5964C148.649 89.5964 162.981 75.0746 162.981 57.161C162.981 39.2474 148.649 24.7256 130.968 24.7256C113.288 24.7256 98.9547 39.2474 98.9547 57.161C98.9547 75.0746 113.288 89.5964 130.968 89.5964Z" fill="#FFB6B6"/>
<path d="M155.282 103.887C152.676 101.68 150.861 98.662 150.121 95.3026C149.529 99.3814 149.683 103.536 150.577 107.558C148.844 108.878 147.162 110.133 145.572 111.269C144.368 108.132 142.717 105.191 140.671 102.54C140.476 106.713 140.293 110.899 140.111 115.072C138.079 116.466 135.939 117.69 133.711 118.73L134.662 117.581C141.492 107.386 123.818 88.6203 130.648 78.4384C132.564 75.5858 123.909 53.043 117.314 52.0261C111.448 51.1281 111.696 52.8449 106.013 54.0995C105.423 51.6058 104.507 49.203 103.289 46.955C103.613 49.46 103.538 52.0015 103.067 54.4825C101.047 54.5617 99.4574 53.2574 97.3061 52.9242C83.581 50.798 84.9756 35.7563 88.7947 30.9888C92.6268 26.2346 105.348 24.8084 111.214 23.2632C111.748 22.735 112.96 23.0651 113.495 22.5633C124.735 12.1403 139.769 10.4142 153.298 15.0339C167.726 19.9605 176.721 29.4955 181.338 44.1949L182.662 55.9582C183.85 59.7405 182.356 77.3391 181.338 81.1721C177.382 96.0712 168.957 88.6335 155.282 103.887Z" fill="#2F2E41"/>
<path d="M201.961 257.557L200.701 158.106C200.635 153.893 198.937 149.874 195.973 146.919C193.009 143.963 189.017 142.306 184.858 142.306C182.706 142.306 180.577 142.75 178.6 143.611C176.624 144.472 174.841 145.731 173.36 147.313C171.88 148.895 170.733 150.765 169.989 152.811C169.246 154.856 168.921 157.034 169.035 159.211L173.47 262.476L173.554 325.339C170.94 326.462 168.731 328.373 167.227 330.812C165.722 333.252 164.995 336.102 165.145 338.974C165.294 341.847 166.313 344.603 168.063 346.869C169.813 349.134 172.208 350.799 174.924 351.637C177.64 352.475 180.545 352.446 183.244 351.553C185.943 350.66 188.305 348.947 190.01 346.647C191.715 344.346 192.679 341.57 192.772 338.695C192.865 335.82 192.082 332.985 190.53 330.577L201.961 257.557Z" fill="#FFB6B6"/>
<path d="M367.185 386.224C367.185 386.224 365.236 421.743 364.34 442H297.235C295.854 423.565 295.389 410.021 295.389 410.021L291.717 442H223.887L219.682 382.774L240.004 331.736C240.004 331.736 350.132 323.998 360.347 333.815C370.556 343.624 367.185 386.224 367.185 386.224Z" fill="#2F2E41"/>
<path d="M307.845 87.4335C328.089 87.4335 344.499 70.8062 344.499 50.2954C344.499 29.7846 328.089 13.1573 307.845 13.1573C287.601 13.1573 271.19 29.7846 271.19 50.2954C271.19 70.8062 287.601 87.4335 307.845 87.4335Z" fill="#FFB6B6"/>
<path d="M350.569 38.2278C346.805 39.9672 344.365 52.5647 341.406 49.636C338.447 46.7074 338.644 42.8962 334.655 41.8154C331.433 40.9388 327.966 41.9406 325.027 43.5205C324.502 43.7993 323.993 44.1025 323.498 44.4039C323.17 44.1824 322.845 43.9739 322.495 43.7815C319.866 42.3563 316.798 42.0066 313.923 42.8046C316.195 43.5757 318.17 45.0509 319.57 47.0217C318.586 47.6895 317.59 48.3591 316.571 48.9523C308.058 53.9298 295.944 43.1064 286.983 39.0403C292.596 49.712 289.832 54.1317 284.959 65.1684L284.791 65.7969C285.067 63.0308 276.619 60.9693 277.109 64.8632C277.457 67.6279 279.818 73.773 281.141 76.214C271.72 65.1767 265.281 51.6701 266.64 37.7369C266.936 34.81 266.847 31.7218 268.337 29.1814C269.828 26.6541 272.938 24.8806 275.689 25.8443C275.456 21.4009 276.416 16.9765 278.466 13.0415C280.517 9.10652 283.581 5.80805 287.334 3.49676C291.087 1.18547 295.388 -0.0522447 299.779 -0.0848124C304.171 -0.11738 308.489 1.05643 312.275 3.31181C315.793 5.40323 318.73 8.36117 321.954 10.9126C325.179 13.4641 328.895 15.6881 332.984 15.8987C335.577 16.0255 338.4 15.3839 340.628 16.7449C343.209 18.3242 343.651 21.6307 344.039 24.8124C341.736 25.0423 339.554 25.9625 337.771 27.4553C340.153 27.2091 342.551 27.7303 344.624 28.9446C344.663 28.9626 344.7 28.9843 344.736 29.0092C346.1 34.2675 345.961 35.4331 350.569 38.2278Z" fill="#2F2E41"/>
<path d="M224.05 349.704C255.264 312.685 244.721 265.599 232.332 218.069L234.69 147.853C234.805 144.408 235.737 141.043 237.407 138.04C239.076 135.037 241.435 132.486 244.282 130.601L276.148 109.508L288.551 91.3395L322.74 94.8034L341.698 115.117L362.684 131.349C367.953 135.425 371.962 140.942 374.239 147.25C376.515 153.558 376.964 160.393 375.533 166.952L355.451 258.968C355.451 258.968 363.85 306.67 358.725 311.938C353.6 317.206 340.395 311.941 350.867 317.855C363.434 324.952 374.861 323.642 368.502 330.086C362.142 336.53 370.191 345.488 370.191 345.488L224.05 349.704Z" fill="black"/>
<path d="M237.396 403.505L242.599 365.942L221.835 359.936L217.728 399.849C216.01 401.445 214.765 403.495 214.133 405.769C213.502 408.043 213.509 410.451 214.154 412.72C214.799 414.99 216.056 417.033 217.784 418.619C219.512 420.205 221.643 421.271 223.936 421.697C226.229 422.123 228.594 421.893 230.765 421.032C232.936 420.171 234.827 418.714 236.226 416.824C237.624 414.934 238.475 412.686 238.681 410.333C238.888 407.98 238.443 405.616 237.396 403.505Z" fill="#FFB6B6"/>
<path d="M276.927 116.28C276.927 116.28 217.823 135.77 216.414 150.03C215.004 164.291 215.472 173.021 209.234 230.086L209.563 383.803C209.563 383.803 249.188 392.399 245.124 383.209C241.061 374.018 242.479 369.694 242.479 369.694C242.479 369.694 250.974 366.297 248.848 355.506C246.721 344.715 257.386 291.238 257.386 291.238L264.117 195.33L276.927 116.28Z" fill="black"/>
<path d="M349.804 401.516L347.035 363.688L368.142 359.07L369.665 399.17C371.277 400.876 372.387 403.005 372.87 405.316C373.353 407.627 373.191 410.028 372.401 412.251C371.611 414.473 370.225 416.428 368.398 417.896C366.571 419.364 364.377 420.287 362.061 420.56C359.745 420.834 357.4 420.447 355.289 419.445C353.178 418.442 351.385 416.862 350.112 414.884C348.838 412.905 348.135 410.606 348.08 408.244C348.026 405.883 348.623 403.552 349.804 401.516Z" fill="#FFB6B6"/>
<path d="M328.887 112.287C328.887 112.287 386.607 135.649 387.094 149.973C387.58 164.296 386.55 172.977 389.093 230.333L378.848 383.7C378.848 383.7 338.753 389.653 343.401 380.751C348.049 371.849 346.913 367.441 346.913 367.441C346.913 367.441 338.655 363.488 341.473 352.861C344.291 342.234 337.099 288.165 337.099 288.165L336.57 192.016L328.887 112.287Z" fill="black"/>
</g>
<defs>
<clipPath id="clip0_9_173">
<rect width="573" height="442" fill="white"/>
</clipPath>
</defs>
</svg>
