<svg width="480" height="325" viewBox="0 0 480 325" fill="none" xmlns="http://www.w3.org/2000/svg">
<path d="M157.626 40.1058C167.631 40.1058 175.742 32.5153 175.742 23.1521C175.742 13.7888 167.631 6.19836 157.626 6.19836C147.62 6.19836 139.509 13.7888 139.509 23.1521C139.509 32.5153 147.62 40.1058 157.626 40.1058Z" fill="#FFB6B6"/>
<path d="M167.226 43.683L143.379 50.0589L139.973 57.2318L132.308 91.5021V145.697C132.308 145.697 122.94 164.825 128.05 181.561C133.512 199.451 152.748 178.336 167.226 180.746C181.704 183.155 204.698 185.546 204.698 185.546L191.072 127.366L187.665 56.4348L167.226 43.683Z" fill="#E6E6E6"/>
<path d="M162.726 28.704L159.042 26.9806C159.042 26.9806 158.122 19.2251 156.28 17.5017C154.438 15.7783 154.438 14.9166 154.438 14.9166L157.201 11.4697C157.201 11.4697 143.388 18.3634 140.626 14.0549C137.864 9.74631 141.547 8.02288 141.547 8.02288L136.943 4.57603C136.943 4.57603 142.468 8.02288 143.388 5.43774C144.309 2.8526 149.834 1.09864 149.834 1.09864C149.834 1.09864 161.899 3.65325 160.931 1.09864C159.963 -1.45596 163.646 1.12918 164.567 1.99089C165.488 2.8526 173.775 11.4697 174.696 10.608C175.617 9.74631 180.221 12.3314 179.3 13.1932C178.38 14.0549 178.38 14.9166 179.3 15.7783C180.221 16.64 185.746 26.1189 181.142 29.5657C176.538 33.0125 170.092 37.3211 171.013 40.768C171.934 44.2148 171.013 29.5657 162.726 28.704Z" fill="#2F2E41"/>
<path d="M73.4195 71.3889C68.7697 67.6378 67.0688 62.352 69.6202 59.5831C72.1717 56.8143 78.0084 57.611 82.6594 61.364C84.5393 62.8394 86.0142 64.7145 86.9609 66.8326L106.448 82.959L98.1666 91.3555L79.8349 74.5663C77.4559 74.0018 75.2561 72.9123 73.4195 71.3889Z" fill="#FFB6B6"/>
<path d="M140.177 57.5059L153.014 56.4139L164.271 106.656C166.416 116.23 159.71 125.576 149.429 127.342L140.177 128.932L81.2089 80.3444L89.8242 66.9043L133.311 92.4318L140.177 57.5059Z" fill="#E6E6E6"/>
<path d="M111.52 280.939C111.52 280.939 101.338 298.633 102.066 297.953C102.793 297.272 115.156 301.356 115.156 301.356L122.428 283.661L111.52 280.939Z" fill="#FFB6B6"/>
<path d="M96.4924 157.082C96.4924 157.082 91.2807 176.578 91.8064 175.751C92.3322 174.923 105.389 176.032 105.389 176.032L107.781 157.207L96.4924 157.082Z" fill="#FFB6B6"/>
<path d="M187.151 153.804C164.143 156.829 143.361 154.192 126.428 141.767C126.428 141.767 114.065 180.558 136.609 184.641C159.153 188.725 184.242 181.707 187.151 174.901C190.06 168.096 187.151 153.804 187.151 153.804Z" fill="#2F2E41"/>
<path d="M144.245 166.054L119.156 221.391L107.52 285.363L122.792 288.765L150.109 229.898L187.151 173.54L144.245 166.054Z" fill="#2F2E41"/>
<path d="M140.972 150.274C140.972 150.274 135.155 108.08 124.246 105.357C118.928 104.03 113.956 104.159 110.256 104.639C106.527 105.123 103.555 107.79 102.903 111.259L92.9896 164.012H107.007L111.52 149.721L123.519 169.329L140.972 150.274Z" fill="#2F2E41"/>
<path d="M105.338 170.69L91.4779 169.329L89.3391 176.815C89.3391 176.815 66.7951 195.871 78.4307 197.232C90.0664 198.593 100.975 191.107 100.975 191.107L116.981 182.514C116.981 182.514 110.792 167.075 106.429 167.075C102.066 167.075 105.338 170.69 105.338 170.69Z" fill="#2F2E41"/>
<path d="M112.61 298.293L98.7502 296.932L96.6114 304.418C96.6114 304.418 74.0673 323.473 85.703 324.835C97.3387 326.196 108.247 318.71 108.247 318.71L124.253 310.117C124.253 310.117 123.155 293.997 118.792 293.997C114.429 293.997 112.61 298.293 112.61 298.293Z" fill="#2F2E41"/>
<path d="M182.79 195.269C181.119 200.632 176.807 204.173 173.159 203.177C169.512 202.182 167.911 197.027 169.583 191.661C170.22 189.51 171.398 187.532 173.019 185.893L180.406 163.251L191.687 166.722L183.206 188.675C183.632 190.872 183.489 193.133 182.79 195.269Z" fill="#FFB6B6"/>
<path d="M190.598 56.5334L184.716 54.981C179.169 65.3079 176.784 76.8695 177.825 88.3863L180.728 120.522L171.149 177.006L189.923 181.551L204.718 110.666L190.598 56.5334Z" fill="#E6E6E6"/>
<path d="M324.877 26.2307C324.877 26.2307 331.812 30.0369 329.538 33.801C327.263 37.5651 324.092 42.6922 326.244 44.307C328.395 45.9217 331.946 53.0412 331.946 53.0412C331.946 53.0412 347.106 51.0598 345.683 62.0796C344.259 73.0994 337.138 74.6017 343.242 79.4496C349.346 84.2975 336.898 90.0956 336.898 90.0956C336.898 90.0956 328.304 87.5895 326.344 79.8829C324.383 72.1763 328.091 85.7755 326.848 86.7506C325.604 87.7257 320.775 94.153 317.358 85.6076C313.941 77.0622 317.324 73.749 312.809 68.7055C308.294 63.6621 305.224 55.5047 305.359 54.0787C305.493 52.6527 300.194 39.6407 308.351 34.566C316.507 29.4914 324.877 26.2307 324.877 26.2307Z" fill="#2F2E41"/>
<path d="M393.19 145.796C397.217 148.915 402.2 149.498 404.321 147.1C406.441 144.701 404.896 140.23 400.867 137.111C399.276 135.844 397.384 134.952 395.349 134.51L378.11 121.498L371.758 129.199L389.427 141.209C390.272 142.997 391.562 144.57 393.19 145.796Z" fill="#FFB6B6"/>
<path d="M341.523 74.8316C341.523 74.8316 327.994 66.3647 323.563 70.5165C319.133 74.6682 320.191 85.038 320.191 85.038L355.67 123.731L383.802 140.466L391.346 129.412L367.694 109.662L341.523 74.8316Z" fill="#3F3D56"/>
<path d="M321.692 56.4909L326.6 72.8187H299.659L308.53 52.7004L321.692 56.4909Z" fill="#FFB6B6"/>
<path opacity="0.1" d="M321.692 56.4909L326.6 72.8187H299.659L308.53 52.7004L321.692 56.4909Z" fill="black"/>
<path d="M262.937 177.044C262.589 181.925 264.998 186.049 268.317 186.255C271.636 186.462 274.608 182.673 274.955 177.791C275.122 175.843 274.789 173.885 273.982 172.082L275.176 151.386L264.786 151.068L264.711 171.505C263.656 173.192 263.047 175.092 262.937 177.044Z" fill="#FFB6B6"/>
<path d="M294.223 96.319C294.223 96.319 293.649 81.0977 287.459 80.1633C281.269 79.2289 272.9 86.0975 272.9 86.0975L260.115 135.659L262.066 166.801L276.059 166.061L279.343 136.556L294.223 96.319Z" fill="#3F3D56"/>
<path d="M354.235 278.217C354.235 278.217 364.416 295.911 363.689 295.231C362.962 294.55 350.599 298.633 350.599 298.633L343.327 280.939L354.235 278.217Z" fill="#FFB6B6"/>
<path d="M369.262 154.36C369.262 154.36 374.474 173.856 373.948 173.028C373.422 172.201 360.366 173.31 360.366 173.31L357.973 154.485L369.262 154.36Z" fill="#FFB6B6"/>
<path d="M328.782 67.3744H303.363L275.694 85.0686L267.695 146.999L272.058 159.248L280.058 173.54C280.058 173.54 272.058 142.235 291.693 154.485C311.329 166.735 312.783 168.776 312.783 168.776L338.963 156.526L348.781 105.825L341.508 77.9229L328.782 67.3744Z" fill="#3F3D56"/>
<path d="M278.603 151.082C301.612 154.107 322.393 151.469 339.327 139.045C339.327 139.045 351.69 177.836 329.146 181.919C306.602 186.003 281.512 178.984 278.603 172.179C275.694 165.373 278.603 151.082 278.603 151.082Z" fill="#2F2E41"/>
<path d="M321.51 163.332L346.599 218.669L358.235 282.641L342.963 286.043L315.646 227.176L278.603 170.818L321.51 163.332Z" fill="#2F2E41"/>
<path d="M324.782 147.552C324.782 147.552 330.6 105.357 341.509 102.635C346.826 101.308 351.799 101.437 355.498 101.917C359.227 102.401 362.2 105.067 362.852 108.537L372.765 161.29H358.747L354.235 146.999L342.236 166.607L324.782 147.552Z" fill="#2F2E41"/>
<path d="M360.416 167.968L374.277 166.607L376.416 174.093C376.416 174.093 398.96 193.148 387.324 194.509C375.688 195.871 364.78 188.384 364.78 188.384L348.774 179.792C348.774 179.792 354.962 164.353 359.326 164.353C363.689 164.353 360.416 167.968 360.416 167.968Z" fill="#2F2E41"/>
<path d="M353.144 295.571L367.004 294.21L369.143 301.696C369.143 301.696 391.687 320.751 380.052 322.112C368.416 323.473 357.508 315.987 357.508 315.987L341.501 307.395C341.501 307.395 342.599 291.275 346.963 291.275C351.326 291.275 353.144 295.571 353.144 295.571Z" fill="#2F2E41"/>
<path d="M315.291 60.0391C324.251 60.0391 331.516 53.2412 331.516 44.8556C331.516 36.47 324.251 29.6721 315.291 29.6721C306.33 29.6721 299.066 36.47 299.066 44.8556C299.066 53.2412 306.33 60.0391 315.291 60.0391Z" fill="#FFB6B6"/>
<path d="M321.51 27.9007C321.51 27.9007 324.214 34.9863 319.888 36.5047C315.561 38.0231 309.612 40.0475 310.153 42.5781C310.694 45.1087 308.53 52.7004 308.53 52.7004C308.53 52.7004 321.51 60.2921 312.857 67.8839C304.204 75.4756 297.714 72.3473 299.066 79.7318C300.418 87.1163 286.897 84.0796 286.897 84.0796C286.897 84.0796 282.03 76.994 285.815 69.9083C289.601 62.8227 283.111 75.4756 281.489 75.4756C279.866 75.4756 271.754 77.5001 274.999 68.8961C278.244 60.2921 283.111 59.786 283.111 53.2065C283.111 46.627 286.356 38.5292 287.438 37.5169C288.519 36.5047 293.387 23.3457 303.122 24.3579C312.857 25.3702 321.51 27.9007 321.51 27.9007Z" fill="#2F2E41"/>
<path d="M179.7 278.217C179.7 278.217 169.519 295.911 170.246 295.231C170.973 294.55 183.336 298.633 183.336 298.633L190.609 280.939L179.7 278.217Z" fill="#A0616A"/>
<path d="M255.332 151.082C232.324 154.107 211.542 151.469 194.608 139.045C194.608 139.045 182.245 177.836 204.79 181.919C227.334 186.003 252.423 178.984 255.332 172.179C258.241 165.373 255.332 151.082 255.332 151.082Z" fill="#2F2E41"/>
<path d="M212.425 163.332L187.336 218.669L175.7 282.641L190.972 286.043L218.289 227.176L255.332 170.818L212.425 163.332Z" fill="#2F2E41"/>
<path d="M180.791 295.571L166.931 294.21L164.792 301.696C164.792 301.696 142.248 320.751 153.884 322.112C165.519 323.473 176.428 315.987 176.428 315.987L192.434 307.395C192.434 307.395 191.336 291.275 186.972 291.275C182.609 291.275 180.791 295.571 180.791 295.571Z" fill="#2F2E41"/>
<path d="M202.689 268.908C202.689 268.908 198.838 288.678 199.305 287.821C199.772 286.963 212.878 287.278 212.878 287.278L213.963 268.348L202.689 268.908Z" fill="#A0616A"/>
<path d="M195.944 150.178L190.322 210.06L200.343 274.27L215.991 273.098L222.569 209.215L239.226 144.912L195.944 150.178Z" fill="#2F2E41"/>
<path d="M209.448 285.1L195.815 287.807L196.248 295.545C196.248 295.545 181.086 320.18 192.603 318.115C204.119 316.051 212.028 305.78 212.028 305.78L224.421 292.986C224.421 292.986 218.062 277.969 213.911 279.229C209.761 280.489 209.448 285.1 209.448 285.1Z" fill="#2F2E41"/>
<path d="M209.058 26.2307C209.058 26.2307 202.123 30.0369 204.397 33.801C206.672 37.5651 209.843 42.6922 207.692 44.307C205.54 45.9217 201.989 53.0412 201.989 53.0412C201.989 53.0412 186.829 51.0598 188.253 62.0796C189.676 73.0994 196.797 74.6017 190.693 79.4496C184.589 84.2975 197.037 90.0956 197.037 90.0956C197.037 90.0956 205.631 87.5895 207.591 79.8829C209.552 72.1763 205.844 85.7755 207.087 86.7506C208.331 87.7257 213.16 94.153 216.577 85.6076C219.995 77.0622 216.611 73.749 221.126 68.7055C225.641 63.6621 228.711 55.5047 228.577 54.0787C228.442 52.6527 233.741 39.6407 225.585 34.566C217.428 29.4914 209.058 26.2307 209.058 26.2307Z" fill="#2F2E41"/>
<path d="M212.244 56.4909L207.335 72.8187H234.277L225.405 52.7004L212.244 56.4909Z" fill="#A0616A"/>
<path opacity="0.1" d="M212.244 56.4909L207.335 72.8187H234.277L225.405 52.7004L212.244 56.4909Z" fill="black"/>
<path d="M270.998 177.044C271.346 181.925 268.937 186.049 265.618 186.255C262.299 186.462 259.327 182.673 258.98 177.791C258.813 175.843 259.147 173.885 259.954 172.082L258.759 151.386L269.149 151.068L269.224 171.505C270.28 173.192 270.888 175.092 270.998 177.044Z" fill="#A0616A"/>
<path d="M239.712 96.319C239.712 96.319 240.287 81.0977 246.476 80.1633C252.666 79.2289 261.035 86.0975 261.035 86.0975L273.82 135.659L271.87 166.801L257.877 166.061L254.592 136.556L239.712 96.319Z" fill="black"/>
<path d="M205.153 67.3744H230.572L258.241 85.0686L266.24 146.999L261.877 159.248L253.877 173.54C253.877 173.54 261.877 142.235 242.242 154.485C242.045 154.607 241.851 154.729 241.658 154.849C229.019 162.749 212.341 161.938 200.641 152.859L191.336 145.637L196.426 121.818L192.427 77.9229L205.153 67.3744Z" fill="black"/>
<path d="M141.549 144.909C137.472 147.97 132.48 148.483 130.399 146.054C128.317 143.626 129.935 139.177 134.014 136.115C135.626 134.872 137.532 134.007 139.573 133.594L157.022 120.828L163.249 128.619L145.387 140.376C144.513 142.152 143.197 143.707 141.549 144.909Z" fill="#A0616A"/>
<path d="M194.363 74.6876C194.363 74.6876 208.028 66.4142 212.39 70.6284C216.753 74.8426 215.527 85.1962 215.527 85.1962L179.424 123.381L151.023 139.713L143.66 128.553L167.629 109.141L194.363 74.6876Z" fill="black"/>
<path d="M218.645 60.0391C227.605 60.0391 234.869 53.2412 234.869 44.8556C234.869 36.47 227.605 29.6721 218.645 29.6721C209.684 29.6721 202.42 36.47 202.42 44.8556C202.42 53.2412 209.684 60.0391 218.645 60.0391Z" fill="#A0616A"/>
<path d="M210.567 34.6783C210.567 34.6783 208.177 27.222 212.161 27.222C216.145 27.222 232.08 27.9676 233.674 29.4588C235.267 30.9501 254.124 45.9166 242.969 57.8467C231.814 69.7767 242.969 75.5409 242.969 75.5409C242.969 75.5409 251.203 93.5828 243.235 95.0741C235.267 96.5653 202.585 88.0383 210.567 74.1964C219.23 59.1752 223.261 35.4665 210.567 34.6783Z" fill="#2F2E41"/>
<path d="M121.563 139.303L120.743 115.081C120.729 114.687 120.895 114.305 121.196 114.03C121.497 113.756 121.911 113.612 122.331 113.636L142.871 114.788C143.286 114.812 143.675 114.997 143.939 115.298C144.203 115.598 144.323 115.991 144.267 116.377L140.792 140.452C140.687 141.18 139.991 141.713 139.208 141.664L122.963 140.659C122.798 140.649 122.641 140.614 122.496 140.559C121.959 140.356 121.583 139.874 121.563 139.303Z" fill="black"/>
<path d="M120.768 112.815C121.056 112.786 121.441 112.751 121.903 112.715C121.779 112.5 121.729 112.245 121.781 111.984L122.148 110.17C122.243 109.699 122.649 109.338 123.156 109.274C126.181 108.896 136.583 107.869 143.133 110.65C143.543 110.824 143.807 111.206 143.82 111.627L143.88 113.563C143.887 113.802 143.813 114.024 143.682 114.208C144.227 114.345 144.77 114.49 145.308 114.648C145.645 114.747 145.887 115.025 145.928 115.354L146.029 116.178C146.094 116.702 145.636 117.151 145.074 117.116L120.518 115.564C119.959 115.529 119.57 115.03 119.705 114.521L119.988 113.45C120.079 113.106 120.391 112.852 120.768 112.815Z" fill="#3F3D56"/>
<path d="M59.7488 70.5678L58.9283 46.3451C58.915 45.9519 59.0801 45.5691 59.3815 45.2949C59.683 45.0205 60.0968 44.8766 60.5167 44.9002L81.0566 46.053C81.4716 46.0761 81.8609 46.2618 82.1248 46.5623C82.3888 46.8626 82.5083 47.2558 82.4527 47.6412L78.978 71.7165C78.8729 72.4449 78.1768 72.9774 77.3932 72.9287L61.1485 71.9234C60.9837 71.9132 60.8267 71.8788 60.6814 71.8238C60.1449 71.6207 59.7682 71.1381 59.7488 70.5678Z" fill="black"/>
<path d="M58.9538 44.0791C59.2412 44.0508 59.6261 44.016 60.0882 43.9797C59.9647 43.7644 59.9141 43.5098 59.967 43.2485L60.3338 41.4341C60.429 40.9632 60.8344 40.6022 61.342 40.5387C64.3663 40.1603 74.7686 39.1335 81.3187 41.9144C81.7285 42.0884 81.9922 42.4705 82.0052 42.8914L82.0651 44.8271C82.0725 45.0664 81.9982 45.2882 81.868 45.4721C82.4125 45.6092 82.9552 45.754 83.4937 45.912C83.8311 46.011 84.0725 46.2897 84.1131 46.6184L84.2149 47.4429C84.2794 47.9661 83.8211 48.4159 83.2596 48.3804L58.7038 46.8285C58.1449 46.7932 57.7558 46.2942 57.8902 45.7854L58.1731 44.715C58.2643 44.3701 58.5763 44.1163 58.9538 44.0791Z" fill="#3F3D56"/>
<path d="M381.911 145.428L381.091 121.206C381.077 120.812 381.242 120.43 381.544 120.155C381.845 119.881 382.259 119.737 382.679 119.761L403.219 120.913C403.634 120.936 404.023 121.122 404.287 121.423C404.551 121.723 404.671 122.116 404.615 122.502L401.14 146.577C401.035 147.305 400.339 147.838 399.555 147.789L383.311 146.784C383.146 146.774 382.989 146.739 382.844 146.684C382.307 146.481 381.93 145.999 381.911 145.428Z" fill="black"/>
<path d="M381.116 118.94C381.403 118.911 381.788 118.876 382.25 118.84C382.127 118.625 382.076 118.37 382.129 118.109L382.496 116.295C382.591 115.824 382.997 115.463 383.504 115.399C386.529 115.021 396.931 113.994 403.481 116.775C403.891 116.949 404.154 117.331 404.167 117.752L404.227 119.687C404.235 119.927 404.16 120.149 404.03 120.333C404.575 120.47 405.117 120.614 405.656 120.772C405.993 120.871 406.235 121.15 406.275 121.479L406.377 122.303C406.442 122.827 405.983 123.276 405.422 123.241L380.866 121.689C380.307 121.654 379.918 121.155 380.052 120.646L380.335 119.575C380.427 119.231 380.739 118.977 381.116 118.94Z" fill="#3F3D56"/>
</svg>
